<svg xmlns="http://www.w3.org/2000/svg" width="17" height="19" viewBox="0 0 17 19">
  <path id="Path_4034" data-name="Path 4034" d="M29.8,15.625H24.7a.859.859,0,0,0-.85.864v1.3h6.8v-1.3A.859.859,0,0,0,29.8,15.625Zm-9.159,5.614L21.98,33.472a1.282,1.282,0,0,0,1.266,1.153h8.007a1.282,1.282,0,0,0,1.266-1.153l1.339-12.234Zm5.334,9.932a.425.425,0,1,1-.85,0V24.261a.425.425,0,1,1,.85,0Zm3.4,0a.425.425,0,1,1-.85,0V24.261a.425.425,0,1,1,.85,0Zm5.95-12.523H19.174a.43.43,0,0,0-.425.432v.864a.43.43,0,0,0,.425.432h16.15a.43.43,0,0,0,.425-.432V19.08A.43.43,0,0,0,35.324,18.648Z" transform="translate(-18.749 -15.625)" fill="#b6bac2"/>
</svg>
