<svg xmlns="http://www.w3.org/2000/svg" width="30" height="36" viewBox="0 0 30 36">
  <path id="Path_4061" data-name="Path 4061" d="M-997-9210v-36h30v36Zm2.885-2.842h24.231v-30.312h-24.231Zm2.328-11.352a9.853,9.853,0,0,1,9.911-9.77,9.854,9.854,0,0,1,9.916,9.77,9.85,9.85,0,0,1-9.916,9.766A9.849,9.849,0,0,1-991.788-9224.194Zm2.771,0a7.1,7.1,0,0,0,7.14,7.035,7.1,7.1,0,0,0,7.14-7.035,7.1,7.1,0,0,0-7.14-7.035A7.1,7.1,0,0,0-989.016-9224.194Zm12.635-14.387a1.8,1.8,0,0,1,1.81-1.785,1.8,1.8,0,0,1,1.81,1.785,1.8,1.8,0,0,1-1.81,1.787A1.8,1.8,0,0,1-976.381-9238.581Zm-14.85,1.109v-2.846h5.769v2.846Z" transform="translate(997 9246.001)" fill="#bf3385"/>
</svg>
