<svg xmlns="http://www.w3.org/2000/svg" width="28" height="36" viewBox="0 0 28 36">
  <path id="paper" d="M28,35.3H8a1.413,1.413,0,0,1-1-.408A1.262,1.262,0,0,1,6.625,34V6A1.262,1.262,0,0,1,7,5.107,1.413,1.413,0,0,1,8,4.7H19.75v7.38a2.557,2.557,0,0,0,.718,1.782A2.416,2.416,0,0,0,22.2,14.6h7.175V34a1.262,1.262,0,0,1-.376.892A1.413,1.413,0,0,1,28,35.3Zm4-20.7V34a4,4,0,0,1-4,4H8a4,4,0,0,1-4-4V6A4,4,0,0,1,8,2H22L32,12ZM22.375,6.141,28.134,11.9H22.375Z" transform="translate(-4 -2)" fill="#bf3385" fill-rule="evenodd"/>
</svg>
