<svg xmlns="http://www.w3.org/2000/svg" width="36" height="36" viewBox="0 0 36 36">
  <path id="Path_4062" data-name="Path 4062" d="M3.635,2.25a1.385,1.385,0,0,0,0,2.769V25.173a4.39,4.39,0,0,0,1.217,3.046,4.08,4.08,0,0,0,2.937,1.262H18.865v6h-6a1.385,1.385,0,0,0,0,2.769H27.635a1.385,1.385,0,0,0,0-2.769h-6v-6H32.712a4.08,4.08,0,0,0,2.937-1.262,4.391,4.391,0,0,0,1.217-3.046V5.019a1.385,1.385,0,1,0,0-2.769ZM6.4,25.173A1.622,1.622,0,0,0,6.845,26.3a1.311,1.311,0,0,0,.944.415H32.712a1.311,1.311,0,0,0,.944-.415,1.622,1.622,0,0,0,.441-1.124V5.019H6.4Z" transform="translate(-2.25 -2.25)" fill="#bf3385" fill-rule="evenodd"/>
</svg>
