<svg xmlns="http://www.w3.org/2000/svg" width="34" height="36" viewBox="0 0 34 36">
  <path id="Path_4067" data-name="Path 4067" d="M5.184,13.944A2.675,2.675,0,0,0,2.5,16.611V30.833A2.676,2.676,0,0,0,5.184,33.5H7.421v2.667a1.342,1.342,0,0,0,2.684,0V33.5H28.895v2.667a1.342,1.342,0,0,0,2.684,0V33.5h2.237A2.676,2.676,0,0,0,36.5,30.833V16.611a2.676,2.676,0,0,0-2.684-2.667H20.842V12.167h4.026A2.688,2.688,0,0,0,27.152,10.9a2.652,2.652,0,0,0,.117-2.595L24.585,2.974a2.686,2.686,0,0,0-2.4-1.474H16.816a2.686,2.686,0,0,0-2.4,1.474L11.731,8.307a2.652,2.652,0,0,0,.117,2.595,2.688,2.688,0,0,0,2.283,1.265h4.026v1.778Zm0,2.667H33.816v5.778H5.184ZM33.816,30.833H5.184V25.056H33.816ZM22.184,4.167H16.816L14.132,9.5H24.868Z" transform="translate(-2.5 -1.5)" fill="#bf3385" fill-rule="evenodd"/>
</svg>
