<svg xmlns="http://www.w3.org/2000/svg" width="32" height="36" viewBox="0 0 32 36">
  <path id="Path_4065" data-name="Path 4065" d="M13521.035,16150.628v-9a1.117,1.117,0,0,1,1.1-1.125h1.1v-4.5a1.115,1.115,0,0,1,.819-1.084l15.731-4.277v-8.135H13542v9a1.122,1.122,0,0,1-.819,1.088l-15.736,4.277v3.635h1.108a1.118,1.118,0,0,1,1.1,1.125v9a3.311,3.311,0,1,1-6.62,0Zm2.206,0a1.1,1.1,0,1,0,2.2,0v-7.875h-2.2Zm-12.137-21.379a1.113,1.113,0,0,1-1.105-1.125v-9a1.112,1.112,0,0,1,1.105-1.121h26.479a1.11,1.11,0,0,1,1.1,1.121v9a1.11,1.11,0,0,1-1.1,1.125Zm1.1-2.246h24.275v-6.754h-24.275Z" transform="translate(-13509.999 -16118.003)" fill="#bf3385"/>
</svg>
