<svg xmlns="http://www.w3.org/2000/svg" width="36" height="36" viewBox="0 0 36 36">
  <path id="Path_4059" data-name="Path 4059" d="M-400-8909a18,18,0,0,1,18-18,18,18,0,0,1,18,18,18,18,0,0,1-18,18A18,18,0,0,1-400-8909Zm2.275,0A15.742,15.742,0,0,0-382-8893.275,15.743,15.743,0,0,0-366.276-8909,15.744,15.744,0,0,0-382-8924.723,15.743,15.743,0,0,0-397.725-8909Zm7.2,0a8.523,8.523,0,0,1,8.523-8.527,8.524,8.524,0,0,1,8.528,8.527,8.523,8.523,0,0,1-8.528,8.521A8.522,8.522,0,0,1-390.526-8909Zm2.271,0a6.261,6.261,0,0,0,6.253,6.252A6.258,6.258,0,0,0-375.75-8909,6.259,6.259,0,0,0-382-8915.25,6.262,6.262,0,0,0-388.255-8909Z" transform="translate(400 8927)" fill="#bf3385"/>
</svg>
