<svg xmlns="http://www.w3.org/2000/svg" width="21" height="36" viewBox="0 0 21 36">
  <path id="Size-24-9" d="M15.188,9.32v1.172h-.915a.466.466,0,0,0-.4.508v3.36L6.919,20.72A2.762,2.762,0,0,0,6,22.88V35a3.119,3.119,0,0,0,3.281,3H21.094a3.119,3.119,0,0,0,3.281-3V11a.6.6,0,0,0-.656-.6h-.656V9.2h3.281A.6.6,0,0,0,27,8.6C27,5,23.719,2,19.781,2H9.281a.6.6,0,0,0-.656.6V3.747H6.656a.6.6,0,0,0-.656.6V6.522a.6.6,0,0,0,.656.6H8.625V8.48L6.131,13.16c-.174.318.157.96.525.96H9.281c.263,0,.525-.36.525-.36L12.3,9.32Zm6.562,3.03H16.5v3.222L8.663,22.738c-.041.037-.038.055-.038.142V35c-.013.234.529.3.656.3H21.094c.129,0,.67-.064.656-.3V12.35ZM11.25,4.7h8.531a4.75,4.75,0,0,1,3.825,1.8H20.438v3.992H17.813V6.62H11.25Z" transform="translate(-6 -2)" fill="#bf3385" fill-rule="evenodd"/>
</svg>
