<svg xmlns="http://www.w3.org/2000/svg" width="36" height="36" viewBox="0 0 36 36">
  <path id="Path_4066" data-name="Path 4066" d="M22.6,36V0h10.96A2.418,2.418,0,0,1,36,2.4V33.6A2.418,2.418,0,0,1,33.564,36Zm2.436-2.4h8.524V31.2H31.128V28.8h2.435V25.2H28.693V22.8h4.871V19.2H31.128V16.8h2.435V13.2H28.693V10.8h4.871V7.2H31.128V4.8h2.435V2.4H25.04ZM3.659,36A3.65,3.65,0,0,1,0,32.394L0,10.483,6.255,1.2a2.765,2.765,0,0,1,4.558,0l6.245,9.6,0,21.594A3.651,3.651,0,0,1,13.4,36ZM2.5,11.068,2.442,32.395a1.219,1.219,0,0,0,1.222,1.2h9.729a1.221,1.221,0,0,0,1.223-1.2L14.552,11.06l-1.8-2.719H4.3Zm5.78-8.535L5.868,6.062h5.321L8.781,2.533a.276.276,0,0,0-.5,0Z" transform="translate(0 -0.001)" fill="#bf3385"/>
</svg>
