<svg xmlns="http://www.w3.org/2000/svg" width="36" height="28" viewBox="0 0 36 28">
  <path id="Size-24-2" d="M20,9.4a12.5,12.5,0,0,1,4.5,9.161A20.611,20.611,0,0,0,20,25.838a20.61,20.61,0,0,0-4.5-7.279A12.5,12.5,0,0,1,20,9.4ZM18.2,33.906C8.358,32.882,3,26.2,2.128,17.392Q2,16.106,2,14.763a23.117,23.117,0,0,1,2.7.165,23.812,23.812,0,0,1,8.15,2.436C13.246,12.921,15.908,8.93,20,6c4.216,3.018,6.914,7.164,7.179,11.769A24.789,24.789,0,0,1,35.3,14.979a18.049,18.049,0,0,1,2.7-.216,25.721,25.721,0,0,1-.133,2.63C36.979,26.035,31.623,32.854,21.8,33.9a16.875,16.875,0,0,1-3.6,0Zm-3.819-12.14c-2.32-2.545-6.149-3.692-9.515-4.165a16.226,16.226,0,0,0,3.88,9.139,14.6,14.6,0,0,0,9.329,4.505C17.708,27.35,16.528,24.122,14.381,21.766Zm11,.64c2.438-2.592,6.245-4.081,9.741-4.728a16.325,16.325,0,0,1-3.871,8.981,14.629,14.629,0,0,1-9.336,4.582C22.23,27.535,23.261,24.655,25.377,22.406Z" transform="translate(-2 -6)" fill="#bf3385" fill-rule="evenodd"/>
</svg>
