<svg xmlns="http://www.w3.org/2000/svg" width="36" height="36" viewBox="0 0 36 36">
  <path id="home111" d="M37.623,13.643a1.422,1.422,0,0,1,.4,1.947,1.366,1.366,0,0,1-1.912.41l-.71-.472V33.884a4.182,4.182,0,0,1-4.159,4.22l-22.1-.08A4.183,4.183,0,0,1,5.013,33.8V15.583L4.386,16a1.366,1.366,0,0,1-1.912-.41,1.422,1.422,0,0,1,.4-1.947L20.25,2.1ZM9.152,35.211A1.394,1.394,0,0,1,7.776,33.8V13.748L20.25,5.463l12.391,8.229V33.884a1.394,1.394,0,0,1-1.386,1.407l-4.6-.017V20.665a2.789,2.789,0,0,0-2.763-2.813H16.524a2.789,2.789,0,0,0-2.763,2.813V35.228Zm14.74-14.546H16.524V35.238l7.367.027Z" transform="translate(-2.25 -2.104)" fill="#bf3385" fill-rule="evenodd"/>
</svg>
