<svg xmlns="http://www.w3.org/2000/svg" width="36" height="36" viewBox="0 0 36 36">
  <path id="Glassware" d="M5.192,6.363A4.236,4.236,0,0,1,9.378,3h8.463a4.259,4.259,0,0,1,3.527,1.846H34.737A4.2,4.2,0,0,1,38.994,9.22l-1.4,25.846A4.217,4.217,0,0,1,33.332,39H22.082a4.291,4.291,0,0,1-3.545-1.846H8.207a1.385,1.385,0,1,1,0-2.769H12.47V27.793A10.442,10.442,0,0,1,3,17.831,3.7,3.7,0,0,1,3.075,17Zm14.066,2.71a1.4,1.4,0,0,1,1.419-1.458H34.737a1.4,1.4,0,0,1,1.419,1.458L34.981,30.692H20.433Zm1.4,25.846a1.406,1.406,0,0,0,1.419,1.311H33.332a1.406,1.406,0,0,0,1.419-1.311l.079-1.458H20.583Zm-5.35-7.2a10.745,10.745,0,0,0,2.083-.549l.392,7.218H15.313ZM9.378,5.769a1.412,1.412,0,0,0-1.4,1.121L5.865,17.526a1.008,1.008,0,0,0-.023.224A7.666,7.666,0,0,0,13.6,25.082a7.879,7.879,0,0,0,3.639-.881L16.42,9.22a4.1,4.1,0,0,1,1.568-3.443c-1.454,0-2.911,0-4.358,0C12.2,5.771,10.778,5.769,9.378,5.769Z" transform="translate(-3 -3)" fill="#bf3385" fill-rule="evenodd"/>
</svg>
