<svg xmlns="http://www.w3.org/2000/svg" width="36" height="36" viewBox="0 0 36 36">
  <path id="producty" d="M29.943,9.289a8.354,8.354,0,0,1,3.99,1.916C36.4,13.069,38,15.919,38,21.434s-1.5,9.633-4.537,12.629a14.876,14.876,0,0,1-5.212,3.607,5.749,5.749,0,0,1-3.517.113c-1.3-.271-2.3-1.488-4.734-1.488-2.458,0-3.458,1.217-4.716,1.488a5.823,5.823,0,0,1-3.536-.113,14.967,14.967,0,0,1-5.156-3.728C3.552,30.947,2,26.9,2,21.434S3.519,13.069,5.76,11.2,9.418,8.942,12.005,9.34s5.562,3.335,8,3.335h0c.574-5.785,3.451-9.219,7.188-10.3A9.687,9.687,0,0,1,29.9,2C29.9,4.43,29.942,6.86,29.943,9.289Zm-7.024,2.149A9.371,9.371,0,0,1,25.247,6.59,6.168,6.168,0,0,1,27.2,5.238c0,1.36.046,2.721.043,4.081A9.439,9.439,0,0,0,22.919,11.438Zm4.309,23.733c-1.141.467-2.285-.2-3.286-.676a8.9,8.9,0,0,0-3.942-.9,10.415,10.415,0,0,0-4.834,1.341,2.924,2.924,0,0,1-2.394.235,12.37,12.37,0,0,1-4.284-3.153C6.07,29.638,4.7,26.342,4.7,21.434S6.024,14.5,7.487,13.28a4.58,4.58,0,0,1,4.108-1.271c1.929.3,3.654,1.926,5.442,2.686a7.656,7.656,0,0,0,2.972.68,8.1,8.1,0,0,0,4.734-1.922,6.051,6.051,0,0,1,2.634-1.432,6.775,6.775,0,0,1,7.038,4,13.591,13.591,0,0,1,.886,5.41c0,5-1.338,8.348-3.731,10.7A12.225,12.225,0,0,1,27.228,35.171ZM10.55,21.8a1.35,1.35,0,1,0-2.7,0c0,3.085,1.534,6.725,4.255,8.358a1.35,1.35,0,1,0,1.389-2.315C11.587,26.7,10.55,23.934,10.55,21.8Z" transform="translate(-2 -2)" fill="#bf3385" fill-rule="evenodd"/>
</svg>
