<svg xmlns="http://www.w3.org/2000/svg" width="36" height="28" viewBox="0 0 36 28">
  <path id="orig_1_" data-name="orig (1)" d="M34.271,13.77H36V11.616H28.655a10.128,10.128,0,0,1,0-6.462h1.726V3H3.937A3.861,3.861,0,0,0,0,6.769V10a3.861,3.861,0,0,0,3.939,3.769H6.01a3.594,3.594,0,0,0-.4,1.616v3.231a3.6,3.6,0,0,0,.395,1.614H3.937A3.861,3.861,0,0,0,0,24v3.231A3.861,3.861,0,0,0,3.937,31H30.381V28.846H28.655a10.129,10.129,0,0,1,0-6.46H36V20.232H34.271a10.129,10.129,0,0,1,0-6.462ZM2.249,10V6.769A1.655,1.655,0,0,1,3.937,5.154H26.314a12.173,12.173,0,0,0,0,6.462H3.937A1.655,1.655,0,0,1,2.249,10ZM26.312,28.846H3.937a1.655,1.655,0,0,1-1.688-1.615V24a1.655,1.655,0,0,1,1.688-1.615c.042.034,19.925,0,22.377,0a12.168,12.168,0,0,0,0,6.46Zm4.069-8.614H9.543a1.654,1.654,0,0,1-1.677-1.614V15.386A1.655,1.655,0,0,1,9.554,13.77H31.929a12.168,12.168,0,0,0,0,6.462Z" transform="translate(0.002 -3)" fill="#bf3385"/>
</svg>
