<svg xmlns="http://www.w3.org/2000/svg" width="36" height="36" viewBox="0 0 36 36">
  <path id="Size-24" d="M15.115,6a1.5,1.5,0,0,0-1.5,1.5V18.231H28.385V7.5a1.5,1.5,0,0,0-1.5-1.5ZM31.385,18.231V7.5a4.5,4.5,0,0,0-4.5-4.5H15.115a4.5,4.5,0,0,0-4.5,4.5V18.231H7.5a4.5,4.5,0,0,0-4.5,4.5v4.154a4.5,4.5,0,0,0,4.5,4.5h3.115V34.5a4.5,4.5,0,0,0,4.5,4.5H26.885a4.5,4.5,0,0,0,4.5-4.5V31.385H34.5a4.5,4.5,0,0,0,4.5-4.5V22.731a4.5,4.5,0,0,0-4.5-4.5Zm0,10.154H34.5a1.5,1.5,0,0,0,1.5-1.5V22.731a1.5,1.5,0,0,0-1.5-1.5H7.5a1.5,1.5,0,0,0-1.5,1.5v4.154a1.5,1.5,0,0,0,1.5,1.5h3.115v-.577a4.5,4.5,0,0,1,4.5-4.5H26.885a4.5,4.5,0,0,1,4.5,4.5ZM15.115,26.308a1.5,1.5,0,0,0-1.5,1.5V34.5a1.5,1.5,0,0,0,1.5,1.5H26.885a1.5,1.5,0,0,0,1.5-1.5V27.808a1.5,1.5,0,0,0-1.5-1.5Z" transform="translate(-3 -3)" fill="#bf3385" fill-rule="evenodd"/>
</svg>
