<svg xmlns="http://www.w3.org/2000/svg" width="36" height="23" viewBox="0 0 36 23">
  <path id="Path_4068" data-name="Path 4068" d="M13531.835,15851.965a7.521,7.521,0,0,1,3.424-6.291l-.93-2.008h-3.369l-1.209,7.337a1.59,1.59,0,0,1,.326.962,1.631,1.631,0,1,1-2.58-1.316l1.154-6.982h-3.316l-1.787,2.62a7.478,7.478,0,0,1,2.621,5.679,7.585,7.585,0,1,1-4.543-6.894l2.162-3.169a1.146,1.146,0,0,1,.943-.49h8.553l-.682-1.474a.093.093,0,0,1-.008-.044c-.01-.02-.029-.047-.041-.069a1.129,1.129,0,0,1,.645-1.464l4.646-1.79a1.141,1.141,0,0,1,1.473.645,1.126,1.126,0,0,1-.65,1.464l-3.512,1.354.764,1.644a1.206,1.206,0,0,1,.313.392l1.207,2.64a7.464,7.464,0,0,1,1.977-.273,7.53,7.53,0,1,1-7.58,7.53Zm2.277,0a5.306,5.306,0,1,0,5.3-5.266,5.127,5.127,0,0,0-1.008.1l2.012,4.367a1.125,1.125,0,0,1-.562,1.493,1.168,1.168,0,0,1-.471.1,1.148,1.148,0,0,1-1.039-.657l-1.227-2.668a1.193,1.193,0,0,1-.295-.381l-.594-1.28A5.233,5.233,0,0,0,13534.112,15851.965Zm-20.832,0a5.3,5.3,0,0,0,10.539.749h-5.279a1.135,1.135,0,0,1-.941-1.771l2.7-3.939a5.216,5.216,0,0,0-1.709-.3A5.291,5.291,0,0,0,13513.28,15851.965Zm7.412-1.512h2.953a5.24,5.24,0,0,0-1.391-2.278Zm.553-11.308v-2.258h5.7v2.258Z" transform="translate(-13511.001 -15836.494)" fill="#bf3385"/>
</svg>
