<svg xmlns="http://www.w3.org/2000/svg" width="36" height="35.998" viewBox="0 0 36 35.998">
  <path id="Path_4070" data-name="Path 4070" d="M-971.6-10250.755a18.043,18.043,0,0,1-6.789-1.369,18.05,18.05,0,0,1-5.84-3.9,18.086,18.086,0,0,1-3.9-5.838,18.11,18.11,0,0,1-1.37-6.889,18.1,18.1,0,0,1,1.37-6.887,18.094,18.094,0,0,1,3.9-5.84,18.081,18.081,0,0,1,5.84-3.9,17.993,17.993,0,0,1,6.887-1.369,19.05,19.05,0,0,1,12.62,4.666,15.551,15.551,0,0,1,5.38,11.615,9.087,9.087,0,0,1-3.121,6.771,10.821,10.821,0,0,1-7.166,2.654h-4.324a.87.87,0,0,0-.533.172.885.885,0,0,0-.313.465.829.829,0,0,0,.044.553.86.86,0,0,0,.372.416,2.368,2.368,0,0,1,.5.361,4.8,4.8,0,0,1,1.448,2.553,4.788,4.788,0,0,1-.318,2.92,4.79,4.79,0,0,1-1.957,2.193,4.81,4.81,0,0,1-2.432.658C-971.4-10250.745-971.5-10250.749-971.6-10250.755ZM-977.4-10283a15.414,15.414,0,0,0-5,3.34,15.478,15.478,0,0,0-3.346,5.01,15.432,15.432,0,0,0-1.174,5.9,15.483,15.483,0,0,0,1.174,5.9,15.516,15.516,0,0,0,3.346,5,15.353,15.353,0,0,0,5,3.34,15.363,15.363,0,0,0,3.341.959,15.416,15.416,0,0,0,2.563.217,2.243,2.243,0,0,0,1.33-.295,2.2,2.2,0,0,0,.9-.994.223.223,0,0,1,.015-.023,2.221,2.221,0,0,0,.147-1.354,2.2,2.2,0,0,0-.67-1.189,3.422,3.422,0,0,1-1.5-1.658,3.412,3.412,0,0,1-.157-2.227,3.426,3.426,0,0,1,1.242-1.848,3.408,3.408,0,0,1,2.123-.7h4.285a8.205,8.205,0,0,0,5.454-2.006,6.492,6.492,0,0,0,2.26-4.848,12.975,12.975,0,0,0-4.515-9.693,16.464,16.464,0,0,0-10.912-4.016A15.361,15.361,0,0,0-977.4-10283Zm-6.412,11.744a3.788,3.788,0,0,1,3.791-3.785,3.789,3.789,0,0,1,3.791,3.785,3.792,3.792,0,0,1-3.791,3.791A3.792,3.792,0,0,1-983.817-10271.253Zm1.9,0a1.893,1.893,0,0,0,1.893,1.9,1.893,1.893,0,0,0,1.893-1.9,1.891,1.891,0,0,0-1.893-1.893A1.891,1.891,0,0,0-981.919-10271.253Zm15.158-1.668a3.787,3.787,0,0,1,3.786-3.791,3.791,3.791,0,0,1,3.791,3.791,3.791,3.791,0,0,1-3.791,3.791A3.787,3.787,0,0,1-966.761-10272.921Zm1.893,0a1.891,1.891,0,0,0,1.893,1.893,1.9,1.9,0,0,0,1.9-1.893,1.9,1.9,0,0,0-1.9-1.9A1.894,1.894,0,0,0-964.868-10272.921Zm-11.255-4.35a3.788,3.788,0,0,1,3.786-3.791,3.792,3.792,0,0,1,3.791,3.791,3.79,3.79,0,0,1-3.791,3.791A3.786,3.786,0,0,1-976.123-10277.271Zm1.893,0a1.891,1.891,0,0,0,1.893,1.893,1.9,1.9,0,0,0,1.9-1.893,1.9,1.9,0,0,0-1.9-1.893A1.892,1.892,0,0,0-974.23-10277.271Z" transform="translate(989.501 10286.743)" fill="#bf3385"/>
</svg>
