<svg xmlns="http://www.w3.org/2000/svg" width="35.996" height="36" viewBox="0 0 35.996 36">
  <path id="Path_4064" data-name="Path 4064" d="M-848.83-9475.592a16.709,16.709,0,0,1,.786-5.053,8.451,8.451,0,0,1-2.352-5.85,8.47,8.47,0,0,1,8.42-8.5,8.343,8.343,0,0,1,6.483,3.115,16.328,16.328,0,0,1,3.1-.3,16.315,16.315,0,0,1,3.093.3,8.356,8.356,0,0,1,6.488-3.119,8.468,8.468,0,0,1,8.416,8.5,8.489,8.489,0,0,1-2.348,5.855,16.691,16.691,0,0,1,.781,5.053A16.53,16.53,0,0,1-832.4-9459,16.534,16.534,0,0,1-848.83-9475.592Zm2.555,0a13.964,13.964,0,0,0,13.878,14.014,13.964,13.964,0,0,0,13.879-14.014,13.96,13.96,0,0,0-13.879-14.014A13.96,13.96,0,0,0-846.275-9475.592Zm19.761-15.477a16.568,16.568,0,0,1,8.628,7.721,5.881,5.881,0,0,0,.935-3.146,5.906,5.906,0,0,0-5.869-5.93A5.748,5.748,0,0,0-826.513-9491.068Zm-21.332,4.568a5.885,5.885,0,0,0,.935,3.152,16.552,16.552,0,0,1,8.628-7.721,5.75,5.75,0,0,0-3.7-1.355A5.9,5.9,0,0,0-847.846-9486.5Zm8.75,17.951a1.287,1.287,0,0,1,.749-1.666,1.305,1.305,0,0,1,1.684.74c.768,1.969,2.745,2.383,4.262,2.383a4.469,4.469,0,0,0,4.316-2.5,1.311,1.311,0,0,1,1.747-.576,1.282,1.282,0,0,1,.587,1.727,7.076,7.076,0,0,1-6.646,3.926C-835.651-9464.512-838.089-9465.984-839.1-9468.549Zm4.036-6.127a2.649,2.649,0,0,1,2.664-2.633,2.648,2.648,0,0,1,2.659,2.633,2.646,2.646,0,0,1-2.659,2.633A2.647,2.647,0,0,1-835.06-9474.676Zm6.88-7.1a1.585,1.585,0,0,1,1.594-1.576,1.585,1.585,0,0,1,1.594,1.576,1.585,1.585,0,0,1-1.594,1.574A1.585,1.585,0,0,1-828.179-9481.777Zm-11.626,0a1.585,1.585,0,0,1,1.594-1.576,1.585,1.585,0,0,1,1.594,1.576,1.585,1.585,0,0,1-1.594,1.574A1.585,1.585,0,0,1-839.8-9481.777Z" transform="translate(850.397 9495)" fill="#bf3385"/>
</svg>
