<svg xmlns="http://www.w3.org/2000/svg" width="15" height="15" viewBox="0 0 15 15">
  <path id="circle-question" d="M7.5,0A7.5,7.5,0,1,0,15,7.5,7.5,7.5,0,0,0,7.5,0Zm0,11.719a.926.926,0,0,1-.937-.937A.91.91,0,0,1,7.5,9.844a.938.938,0,0,1,0,1.875Zm2.024-4.16L8.2,8.379v.059a.7.7,0,1,1-1.406,0V7.969a.723.723,0,0,1,.352-.615l1.67-1A.628.628,0,0,0,9.141,5.8a.674.674,0,0,0-.671-.645h-1.5a.634.634,0,0,0-.645.645.7.7,0,0,1-1.406,0A2.033,2.033,0,0,1,6.946,3.75h1.5A2.041,2.041,0,0,1,9.524,7.559Z" fill="#b6bac2"/>
</svg>
