<svg xmlns="http://www.w3.org/2000/svg" width="16.004" height="15.998" viewBox="0 0 16.004 15.998">
  <g id="Group_1794" data-name="Group 1794" transform="translate(-19.998 -9.001)">
    <path id="catalog-menu-icon" d="M-16957,15872a1,1,0,0,1-1-1v-5a1,1,0,0,1,1-1h5a1,1,0,0,1,1,1v5a1,1,0,0,1-1,1Zm-9,0a1,1,0,0,1-1-1v-5a1,1,0,0,1,1-1h5a1,1,0,0,1,1,1v5a1,1,0,0,1-1,1Zm9-9a1,1,0,0,1-1-1v-5a1,1,0,0,1,1-1h5a1,1,0,0,1,1,1v5a1,1,0,0,1-1,1Zm-9,0a1,1,0,0,1-1-1v-5a1,1,0,0,1,1-1h5a1,1,0,0,1,1,1v5a1,1,0,0,1-1,1Z" transform="translate(16987 -15847)" fill="none"/>
    <path id="Path_1" data-name="Path 1" d="M5,6.054,1.055,10,0,8.946,3.946,5,0,1.055,1.055,0,5,3.946,8.945,0,10,1.055,6.054,5,10,8.946,8.946,10Z" transform="translate(22.999 12)" fill="#fff"/>
  </g>
</svg>
