<svg xmlns="http://www.w3.org/2000/svg" width="23.998" height="31.998" viewBox="0 0 23.998 31.998">
  <path id="Path_4058" data-name="Path 4058" d="M10494.991-8420H10479a4,4,0,0,1-4-4v-24a4,4,0,0,1,4-4h10v8a2,2,0,0,0,2,2h8v18A4.006,4.006,0,0,1,10494.991-8420Zm-14.494-8a1.5,1.5,0,0,0-1.5,1.5,1.5,1.5,0,0,0,1.5,1.5h7a1.5,1.5,0,0,0,1.5-1.5,1.5,1.5,0,0,0-1.5-1.5Zm0-4a1.5,1.5,0,0,0-1.5,1.5,1.5,1.5,0,0,0,1.5,1.5h13a1.5,1.5,0,0,0,1.5-1.5,1.5,1.5,0,0,0-1.5-1.5Zm18.5-12h-8v-8l8,7.994,0,0h0Z" transform="translate(-10474.999 8452)" fill="#bf3385"/>
</svg>
