<svg xmlns="http://www.w3.org/2000/svg" width="15" height="19" viewBox="0 0 15 19">
  <path id="Path_4036" data-name="Path 4036" d="M30,9.856h0v.106H27.836a2.78,2.78,0,0,1-1.029-.19,2.662,2.662,0,0,1-1.714-2.449V7.3l-.064-1.457-.021-.612L24.986,5h.086l.086.084h0L30,9.856Zm-2.164,1.161a3.626,3.626,0,0,1-1.179-.19,3.937,3.937,0,0,1-1.564-.95,3.617,3.617,0,0,1-1.071-2.554L24,6.752l-.043-1.077L23.914,5H17.571A2.56,2.56,0,0,0,15,7.533V21.467A2.56,2.56,0,0,0,17.571,24h9.857A2.56,2.56,0,0,0,30,21.467V11.017Z" transform="translate(-15 -5)" fill="#b6bac2"/>
</svg>
