<svg xmlns="http://www.w3.org/2000/svg" width="19.002" height="18.998" viewBox="0 0 19.002 18.998">
  <path id="Path_4080" data-name="Path 4080" d="M19619.064,16641.254h-1.311a.751.751,0,1,1,0-1.5h1.311a4.5,4.5,0,0,1,8.873,0h7.316a.751.751,0,0,1,0,1.5h-7.318a4.5,4.5,0,0,1-8.871,0Zm1.436-.754a3,3,0,1,0,3-3A3,3,0,0,0,19620.5,16640.5Zm4.561-9.25h-7.307a.749.749,0,1,1,0-1.5h7.307a4.5,4.5,0,0,1,8.879,0h1.314a.749.749,0,0,1,0,1.5h-1.314a4.5,4.5,0,0,1-8.879,0Zm1.441-.748a3,3,0,1,0,3-3A3,3,0,0,0,19626.5,16630.5Z" transform="translate(-19617 -16626.002)" fill="#b6bac2"/>
</svg>
