<svg xmlns="http://www.w3.org/2000/svg" width="19" height="16" viewBox="0 0 19 16">
  <g id="heart" transform="translate(0 -42.152)" fill="#bf3385">
    <path d="M 9.528016090393066 57.15160751342773 C 9.434887886047363 57.12906265258789 9.236401557922363 57.03928375244141 9.070684432983398 56.94596862792969 L 2.44281005859375 50.85311508178711 C 1.525689959526062 50.01129531860352 1.000010013580322 48.82135772705078 1.000010013580322 47.58791732788086 L 1 47.37592697143555 C 1 45.30388641357422 2.510999917984009 43.55196762084961 4.592820167541504 43.21029663085938 C 4.823880195617676 43.17166519165039 5.058350086212158 43.15232467651367 5.292660236358643 43.15232467651367 C 6.43694019317627 43.15232467651367 7.552209854125977 43.60499572753906 8.352499961853027 44.39426803588867 L 8.798959732055664 44.83316802978516 L 9.527859687805176 45.54972457885742 L 10.22828960418701 44.80531692504883 L 10.62193012237549 44.386962890625 C 11.46047973632812 43.59059143066406 12.55095863342285 43.15232467651367 13.69534969329834 43.15232467651367 C 13.93299961090088 43.15232467651367 14.17257022857666 43.17184448242188 14.40740013122559 43.2103271484375 C 16.4890193939209 43.55186462402344 18 45.30378723144531 18 47.3759765625 L 18 47.58791732788086 C 18 48.82224655151367 17.4743595123291 50.01201629638672 16.5578498840332 50.85217666625977 L 9.851140022277832 57.01783752441406 C 9.763515472412109 57.09838104248047 9.649643898010254 57.14534378051758 9.528016090393066 57.15160751342773 Z" stroke="none"/>
    <path d="M 5.292659759521484 44.15232467651367 C 5.113439559936523 44.15232467651367 4.934459686279297 44.16705703735352 4.760680198669434 44.19611740112305 L 4.754770278930664 44.19709777832031 C 3.158550262451172 44.45906448364258 2 45.79597473144531 2 47.37588500976562 L 2.000009536743164 47.58791732788086 C 2.000009536743164 48.54204559326172 2.407669067382812 49.46347808837891 3.119569778442383 50.11692810058594 L 9.499987602233887 55.9822883605957 L 15.88212013244629 50.11502456665039 C 16.59255027770996 49.46378707885742 17 48.54268646240234 17 47.58791732788086 L 17 47.3759765625 C 17 45.79590606689453 15.84148979187012 44.4589958190918 14.24563980102539 44.1971549987793 C 14.06414031982422 44.16740798950195 13.87899971008301 44.15232467651367 13.69536018371582 44.15232467651367 C 12.81726455688477 44.15233612060547 11.97898197174072 44.48640823364258 11.32972145080566 45.09401702880859 L 9.555709838867188 46.97939682006836 L 7.650309562683105 45.10625457763672 C 7.035610198974609 44.50001525878906 6.17628002166748 44.15232467651367 5.292659759521484 44.15232467651367 M 5.29266357421875 42.15232849121094 C 6.677798271179199 42.15232849121094 8.053071022033691 42.69445037841797 9.054690361022949 43.68227767944336 L 9.5 44.12004470825195 L 9.911910057067871 43.68227767944336 C 11.15508079528809 42.48916625976562 12.87694931030273 41.9461555480957 14.56913948059082 42.22349548339844 C 17.12598037719727 42.64300537109375 19 44.8216667175293 19 47.3759765625 L 19 47.58791732788086 C 19 49.10442733764648 18.36171913146973 50.55516815185547 17.23358917236328 51.58931732177734 L 10.52793025970459 57.7540168762207 C 10.24960994720459 58.00980758666992 9.882229804992676 58.15232467651367 9.5 58.15232467651367 C 9.117770195007324 58.15232467651367 8.47206974029541 57.7540168762207 8.47206974029541 57.7540168762207 L 1.766029357910156 51.58931732177734 C 0.6393909454345703 50.55516815185547 9.5367431640625e-06 49.10442733764648 9.5367431640625e-06 47.58791732788086 L 0 47.58791732788086 L 0 47.3759765625 C 0 44.8216667175293 1.87476921081543 42.64300537109375 4.430859565734863 42.22349548339844 C 4.716268539428711 42.17577743530273 5.004813194274902 42.15232849121094 5.29266357421875 42.15232849121094 Z" stroke="none" fill="#bf3385"/>
  </g>
</svg>
