<svg xmlns="http://www.w3.org/2000/svg" width="17" height="16" viewBox="0 0 17 16">
  <path id="Path_3928" data-name="Path 3928" d="M36.922,27.158a1.69,1.69,0,0,0-1.357-1.132l-3.808-.574-1.734-3.369a1.716,1.716,0,0,0-3.038,0l-1.734,3.369-3.805.574a1.691,1.691,0,0,0-1.358,1.131,1.641,1.641,0,0,0,.42,1.7l2.734,2.656-.618,3.724a1.649,1.649,0,0,0,.679,1.615,1.73,1.73,0,0,0,1.778.133L28.5,35.253l3.426,1.726a1.73,1.73,0,0,0,1.778-.133,1.649,1.649,0,0,0,.679-1.615l-.621-3.721L36.5,28.854a1.641,1.641,0,0,0,.422-1.7Z" transform="translate(-20.005 -21.166)" fill="#5bc3cd"/>
</svg>
