<svg xmlns="http://www.w3.org/2000/svg" width="14" height="14" viewBox="0 0 14 14">
  <path id="Path_3925" data-name="Path 3925" d="M-18039,15750a7.01,7.01,0,0,1-7-7,7.007,7.007,0,0,1,7-7,7.007,7.007,0,0,1,7,7A7.01,7.01,0,0,1-18039,15750Zm-.891-8.477h0l-.672,3.094a3.637,3.637,0,0,0-.109.8,1.38,1.38,0,0,0,.445,1.074,1.732,1.732,0,0,0,1.215.408,3.759,3.759,0,0,0,.738-.067,2.1,2.1,0,0,0,.469-.135l.336-1.59a1.392,1.392,0,0,1-.578.128c-.234,0-.355-.1-.355-.29a1.61,1.61,0,0,1,.055-.4l.641-3.024Zm1.414-2.425a1.369,1.369,0,0,0-.941.306,1,1,0,0,0-.363.8.845.845,0,0,0,.324.674,1.269,1.269,0,0,0,.836.27,1.406,1.406,0,0,0,.938-.3.987.987,0,0,0,.352-.789.853.853,0,0,0-.32-.689A1.265,1.265,0,0,0-18038.477,15739.1Z" transform="translate(18046 -15736.001)" fill="#b6bac2"/>
</svg>
