<svg xmlns="http://www.w3.org/2000/svg" width="27" height="32" viewBox="0 0 27 32">
  <path id="Path_4057" data-name="Path 4057" d="M11081.5-8318a.423.423,0,0,1-.2-.032.356.356,0,0,0-.165-.064,38.256,38.256,0,0,1-6.886-4.259,23.468,23.468,0,0,1-3.949-3.9,11.776,11.776,0,0,1-2.3-4.3.135.135,0,0,0-.006-.016v-13.2a.8.8,0,0,1,.657-.743,34.234,34.234,0,0,0,4.7-1.165,19.906,19.906,0,0,0,7.622-4.105.764.764,0,0,1,.541-.218.765.765,0,0,1,.542.218,19.876,19.876,0,0,0,7.621,4.105,34.271,34.271,0,0,0,4.7,1.165.765.765,0,0,1,.624.743v13.191a5.783,5.783,0,0,1-.417,1.269,14.214,14.214,0,0,1-1.768,2.935,23.018,23.018,0,0,1-3.958,3.954,38.069,38.069,0,0,1-7,4.323.582.582,0,0,1-.165.064A.421.421,0,0,1,11081.5-8318Zm-4.171-16.845a.834.834,0,0,0-.591.227.921.921,0,0,0-.231.55.924.924,0,0,0,.231.582l2.955,2.909a.824.824,0,0,0,.575.219.818.818,0,0,0,.574-.219l5.387-5.3a.774.774,0,0,0,.23-.583.921.921,0,0,0-.23-.581.83.83,0,0,0-.587-.242.754.754,0,0,0-.562.242l-4.8,4.753-2.364-2.328A.8.8,0,0,0,11077.329-8334.844Z" transform="translate(-11068 8349.999)" fill="#bf3385"/>
</svg>
