<svg xmlns="http://www.w3.org/2000/svg" width="13" height="16" viewBox="0 0 13 16">
  <path id="Path_4047" data-name="Path 4047" d="M21612.285,180a.733.733,0,0,1-.369-.1l-1.529-.938-1.568.938a.7.7,0,0,1-.363.1.728.728,0,0,1-.369-.1l-1.566-.938-1.568.938a.721.721,0,0,1-.738,0l-1.572-.938-1.568.938a.7.7,0,0,1-.359.1.735.735,0,0,1-.355-.093.744.744,0,0,1-.357-.629V164.742a.718.718,0,0,1,.357-.635.737.737,0,0,1,.365-.1.717.717,0,0,1,.361.1l1.465.938,1.572-.938a.7.7,0,0,1,.361-.1.714.714,0,0,1,.365.1l1.568.938,1.471-.944a.717.717,0,0,1,.736,0l1.568.933,1.566-.933a.907.907,0,0,1,1.242.629v14.542A.721.721,0,0,1,21612.285,180Zm-9.287-7a1,1,0,0,0,0,2h7a1,1,0,0,0,0-2Zm0-4a1,1,0,0,0,0,2h7a1,1,0,0,0,0-2Z" transform="translate(-21600 -164)" fill="#bf3385"/>
</svg>
