<svg xmlns="http://www.w3.org/2000/svg" width="18" height="16" viewBox="0 0 18 16">
  <path id="Path_4045" data-name="Path 4045" d="M-16465.854,15990.08a1.935,1.935,0,0,1,1.951-1.92,1.935,1.935,0,0,1,1.951,1.92,1.936,1.936,0,0,1-1.951,1.921A1.936,1.936,0,0,1-16465.854,15990.08Zm-7.375,0a1.937,1.937,0,0,1,1.953-1.92,1.935,1.935,0,0,1,1.951,1.92,1.936,1.936,0,0,1-1.951,1.921A1.938,1.938,0,0,1-16473.229,15990.08Zm2.16-3.413c-1.334-.015-2.068-1.22-2.371-2.377s-1.359-6.152-1.359-6.152a1.091,1.091,0,0,0-1.074-.868h-1.48a.626.626,0,0,1-.463-.179.6.6,0,0,1-.182-.455.639.639,0,0,1,.645-.635h1.48a2.356,2.356,0,0,1,2.344,1.926l.193,1.058H-16460l-1.332,5.566a2.764,2.764,0,0,1-2.707,2.116s-2.531.007-4.613.007C-16469.691,15986.674-16470.621,15986.672-16471.068,15986.667Z" transform="translate(16477.998 -15976.001)" fill="#bf3385"/>
</svg>
