<svg xmlns="http://www.w3.org/2000/svg" width="14" height="16" viewBox="0 0 14 16">
  <path id="Path_4050" data-name="Path 4050" d="M19.611,19.2H18.17V5.2A1.185,1.185,0,0,0,17,4H9A1.185,1.185,0,0,0,7.83,5.2v14H6.389a.4.4,0,0,0,0,.8h5.056V17.5a.694.694,0,0,1,.684-.7h1.742a.694.694,0,0,1,.684.7V20h5.056a.4.4,0,0,0,0-.8Zm-7.389-4.64a.4.4,0,0,1-.389.4H10.278a.4.4,0,0,1-.389-.4V13.44a.4.4,0,0,1,.389-.4h1.556a.4.4,0,0,1,.389.4Zm0-3.6a.4.4,0,0,1-.389.4H10.278a.4.4,0,0,1-.389-.4V9.84a.4.4,0,0,1,.389-.4h1.556a.4.4,0,0,1,.389.4Zm0-3.6a.4.4,0,0,1-.389.4H10.278a.4.4,0,0,1-.389-.4V6.24a.4.4,0,0,1,.389-.4h1.556a.4.4,0,0,1,.389.4Zm3.889,7.2a.4.4,0,0,1-.389.4H14.167a.4.4,0,0,1-.389-.4V13.44a.4.4,0,0,1,.389-.4h1.556a.4.4,0,0,1,.389.4Zm0-3.6a.4.4,0,0,1-.389.4H14.167a.4.4,0,0,1-.389-.4V9.84a.4.4,0,0,1,.389-.4h1.556a.4.4,0,0,1,.389.4Zm0-3.6a.4.4,0,0,1-.389.4H14.167a.4.4,0,0,1-.389-.4V6.24a.4.4,0,0,1,.389-.4h1.556a.4.4,0,0,1,.389.4Z" transform="translate(-6 -4)" fill="#bf3385"/>
</svg>
