<svg xmlns="http://www.w3.org/2000/svg" width="18.001" height="16" viewBox="0 0 18.001 16">
  <path id="Path_4052" data-name="Path 4052" d="M3635-435.5a4.5,4.5,0,0,1,4.5-4.5,4.5,4.5,0,0,1,4.5,4.5,4.5,4.5,0,0,1-4.5,4.5A4.5,4.5,0,0,1,3635-435.5Zm2.4-.353a.5.5,0,0,0,0,.706l1.25,1.25a.5.5,0,0,0,.706,0l2.25-2.25a.5.5,0,0,0,0-.706.5.5,0,0,0-.706,0l-1.9,1.9-.9-.9a.494.494,0,0,0-.353-.148A.494.494,0,0,0,3637.4-435.853ZM3628-431a2,2,0,0,1-2-2v-12a2,2,0,0,1,2-2h5v4a1,1,0,0,0,1,1h4v1.206a5.5,5.5,0,0,0-4,5.294,5.5,5.5,0,0,0,2.3,4.478,2.4,2.4,0,0,1-.3.022Zm6-12v-4l4,4Z" transform="translate(-3626 447)" fill="#bf3385"/>
</svg>
