<svg xmlns="http://www.w3.org/2000/svg" width="24" height="16" viewBox="0 0 24 16">
  <path id="Path_4053" data-name="Path 4053" d="M3631.625-433.208c.677-4.129,2.792-6.538,6.375-6.538s5.7,2.437,6.375,6.538c.254,1.577-2.849,2.208-6.375,2.208S3631.371-431.631,3631.625-433.208Zm-5.613-1.577c.507-3.1,2.087-4.9,4.767-4.9a4.294,4.294,0,0,1,2.6.774l-.254.258a9.654,9.654,0,0,0-2.313,5.3.561.561,0,0,0-.029.229C3628.156-433.122,3625.814-433.581,3626.012-434.785Zm19.238,1.634c0-.057-.028-.143-.028-.229a9.872,9.872,0,0,0-2.313-5.276,2.572,2.572,0,0,1-.282-.258,4.235,4.235,0,0,1,2.6-.774c2.708,0,4.287,1.835,4.767,4.9.192,1.169-1.983,1.636-4.511,1.636Zm-10.465-10.581A3.243,3.243,0,0,1,3638-447a3.243,3.243,0,0,1,3.216,3.269,3.243,3.243,0,0,1-3.216,3.269A3.243,3.243,0,0,1,3634.784-443.732Zm8.039.746a2.418,2.418,0,0,1,2.4-2.437,2.418,2.418,0,0,1,2.4,2.437,2.418,2.418,0,0,1-2.4,2.437A2.418,2.418,0,0,1,3642.824-442.986Zm-14.443,0a2.418,2.418,0,0,1,2.4-2.437,2.418,2.418,0,0,1,2.4,2.437,2.418,2.418,0,0,1-2.4,2.437A2.418,2.418,0,0,1,3628.381-442.986Z" transform="translate(-3626 447)" fill="#bf3385"/>
</svg>
