<svg xmlns="http://www.w3.org/2000/svg" width="194" height="75" viewBox="0 0 194 75">
  <g id="Group_1640" data-name="Group 1640" transform="translate(-420.815 -419.358)">
    <path id="Path_3912" data-name="Path 3912" d="M75.137,241.282,67.949,247.8l-4.974-11.987L50.1,234.182l.193-1.947,4.43-4.526.739-2.49,2.512-1.353,4.972,11.987L75.2,237.381Z" transform="translate(370.715 246.555)" fill="#5bc3cd" fill-rule="evenodd"/>
    <path id="Path_3913" data-name="Path 3913" d="M260.858,77.9l6.871,1.013-5.661,48.988-1.191.033Z" transform="translate(245.626 344.502)" fill="#5bc3cd" fill-rule="evenodd"/>
    <path id="Path_3914" data-name="Path 3914" d="M105.973,76.259l.073.124.259.4.279.4.3.4.284.361-.186-.3-.218-.394-.177-.378-.139-.358-.1-.338-.066-.314-.033-.292,0-.266.022-.246.047-.23.073-.217.1-.211.123-.2.151-.2.187-.2.226-.2.268-.2.311-.195.355-.19.4-.179.437-.167.477-.154.514-.138.551-.12.584-.1.614-.084.646-.064L113,71.97l.7-.022h.723l.747.022.767.043.786.065.8.089.821.111.833.133.847.157.86.181.87.2.877.227.885.249.89.274.895.3.887.317.868.333L127.9,75l.825.361.8.373.779.386.753.4.729.406.7.414.672.422.644.428.614.433.583.438.551.439.518.443.482.441.448.441.41.438.374.433.335.425.3.419.256.406.218.394.177.378.139.36.1.338.066.314.033.292,0,.266-.022.246-.047.228-.073.219-.1.21-.123.2-.151.2-.188.2-.227.2-.267.2-.311.2-.355.189-.4.179-.437.168-.477.152-.514.138-.551.121-.584.1-.614.084-.646.062-.674.044-.7.021-.723,0-.746-.022-.767-.043-.786-.065-.8-.089-.819-.111-.835-.134-.849-.157-.858-.181-.87-.2-.877-.227-.885-.251-.89-.273-.895-.3-.887-.317-.868-.333-.846-.348-.825-.361-.8-.374-.78-.384-.753-.4-.729-.406-.7-.414-.623-.39.421.3.556.381.568.376.584.371.6.366.609.362.622.355.636.349.646.343.66.335.669.329.68.32.691.313.7.3.694.289.691.275.69.26.685.248.68.233.679.221.671.2.667.193.661.179.653.165.647.151.641.138.631.125.625.11.614.1.606.084.6.07.585.056.574.041.562.027.551.014h.54l.526-.014.513-.027.5-.043.484-.056.47-.071.456-.086.136-.03-9.048,22.39c-.443,2.922-5.713,2.454-7.753,2.264a39.263,39.263,0,0,1-12.185-3.307,51.142,51.142,0,0,1-8.2-4.836c-1.725-1.393-6.013-5.714-4.09-8.384Zm116.985,62.852V126.061h-2.866v5.219h-6.2v-5.219H211.03v13.049H213.9V133.5h6.2v5.614Zm-24.395-6.5c0-.837,0-2.511.808-3.447a4.091,4.091,0,0,1,3.134-1.034,3.956,3.956,0,0,1,3.112,1.034,4.974,4.974,0,0,1,.831,3.447,4.725,4.725,0,0,1-.857,3.349,3.825,3.825,0,0,1-3.087,1.083,3.906,3.906,0,0,1-3.111-1.083,4.994,4.994,0,0,1-.831-3.349m3.942-6.7c-1.542,0-3.821.049-5.241,1.378-1.494,1.4-1.665,3.866-1.665,5.343,0,1.329.122,3.791,1.665,5.219,1.42,1.309,3.7,1.407,5.241,1.407,1.494,0,3.846-.1,5.242-1.407.955-.91,1.665-2.56,1.665-5.318,0-1.378-.171-3.842-1.665-5.245-1.42-1.329-3.7-1.378-5.242-1.378m-17.317,7.312h4.654a1.488,1.488,0,0,1,1.176.419,1.978,1.978,0,0,1,.343,1.379,2.294,2.294,0,0,1-.343,1.453,1.584,1.584,0,0,1-1.273.419H186a.864.864,0,0,1-.636-.2.981.981,0,0,1-.172-.714Zm-2.866-7.164v11.056a1.866,1.866,0,0,0,.49,1.526,1.925,1.925,0,0,0,1.444.468h6.59a3.515,3.515,0,0,0,2.5-.69,4.382,4.382,0,0,0,.98-3.225,4.784,4.784,0,0,0-.858-3.2,3.03,3.03,0,0,0-2.424-.985h-5.855v-4.948Zm-1.959,13.049V126.061H177.5v5.219h-6.2v-5.219h-2.866v13.049H171.3V133.5h6.2v5.614ZM163.609,133.2v3a.612.612,0,0,1-.2.543,1.051,1.051,0,0,1-.636.147h-3.993a1.407,1.407,0,0,1-.931-.4,2.3,2.3,0,0,1-.393-1.451,2.174,2.174,0,0,1,.319-1.4,1.313,1.313,0,0,1,1.054-.443Zm-8.156-7.14v2.216h6.393a1.674,1.674,0,0,1,1.4.565,1.857,1.857,0,0,1,.368,1.233v.91h-5.634a3.321,3.321,0,0,0-2.375.763,3.876,3.876,0,0,0-1.1,3.176c0,.962.074,2.635,1.127,3.546a3.341,3.341,0,0,0,2.351.641h6.2a2.448,2.448,0,0,0,1.788-.517,2.377,2.377,0,0,0,.514-1.675v-6.771a4.494,4.494,0,0,0-.955-3.078,3.773,3.773,0,0,0-2.694-1.009ZM134.3,127.924l-3.043,7.691c-.049.122-.244.517-.368.517s-.317-.4-.368-.517l-3.041-7.691Zm-23.961,4.686c0-.837,0-2.511.808-3.447a4.1,4.1,0,0,1,3.136-1.034,3.95,3.95,0,0,1,3.11,1.034,4.976,4.976,0,0,1,.833,3.447,4.724,4.724,0,0,1-.857,3.349,3.827,3.827,0,0,1-3.087,1.083,3.9,3.9,0,0,1-3.11-1.083,5,5,0,0,1-.833-3.349m-12.344,6.5V127.924h3.944l-2.474,2.767a2.884,2.884,0,0,0-.906,1.7,2.375,2.375,0,0,0,.734,1.526l4.728,5.2h3.453l-5.534-5.811a1.708,1.708,0,0,1-.465-.91,1.777,1.777,0,0,1,.612-1.06l3.183-3.406h3.23a8.53,8.53,0,0,0-1.124,4.712c0,1.329.123,3.791,1.666,5.219,1.42,1.309,3.7,1.407,5.241,1.407,1.494,0,3.846-.1,5.242-1.407.955-.91,1.665-2.56,1.665-5.318a8.371,8.371,0,0,0-1.124-4.613h2.74v11.187h2.866l-.122-9.455c0-.075,0-.222.147-.222.1,0,.172.2.2.271l3.331,8.469a1.82,1.82,0,0,0,3.331,0l3.306-8.469c.049-.1.147-.3.221-.3.049,0,.147.1.147.246l-.123,9.455h2.866V127.924h1.962c0,.1,0,.2,0,.3v10.882h2.866v-10.07a.966.966,0,0,1,.2-.616.716.716,0,0,1,.489-.147h4.851a.955.955,0,0,1,.513.147.821.821,0,0,1,.172.616v10.07h2.866c0-10.987,0,3.937.022-68.753H111.028c-10.141.424-24.346,1.2-28.529,4.015,1.587,1.645,2.336,3.925,2.243,7.048V96.433c2.432-5.638,7.919-4.857,13.09-3.3-.93,1.791-.4,2.492-1.464,4.209-1.614,2.817.756,6.575,2.686,8.466,8.145,7.28,18.445,12.715,28.569,11.255a4.629,4.629,0,0,0,3.262-1.98c1.493-1.8,5-3.474,6.62-4.448a8.144,8.144,0,0,1,1.2,9.042c-1.583,3.523-7.976,5.934-16.153,5.79l-3.489-.211a46.027,46.027,0,0,1-12.606-3.163C94.9,117.393,86.663,108,84.742,101.354v26.57H95.126v11.187Z" transform="translate(351.405 349)" fill="#ab417f" fill-rule="evenodd"/>
    <path id="Path_3915" data-name="Path 3915" d="M-18473.98,20258.707v-5.434h8.254a1.117,1.117,0,0,0,.891-.262.936.936,0,0,0,.2-.6v-.775a.884.884,0,0,0-.2-.59,1.162,1.162,0,0,0-.891-.244h-5.926v-5.121s.672-.027,4.059-.027c.459,0,.758-.086.891-.258a.97.97,0,0,0,.2-.605v-.432a.964.964,0,0,0-.2-.6c-.133-.172-.432-.258-.891-.258h-6.387v-5.5h9.061a4.986,4.986,0,0,1,3.551,1.109,3.941,3.941,0,0,1,1.166,3.006v1.666a4.449,4.449,0,0,1-.375,1.9,2.42,2.42,0,0,1-1.324,1.209,4.007,4.007,0,0,1,2.836,1.25,4.688,4.688,0,0,1,.789,2.922v2.875a4.478,4.478,0,0,1-1.41,3.494,6.007,6.007,0,0,1-4.17,1.279Zm-18.02,0v-5.434h8.254a1.125,1.125,0,0,0,.893-.262.945.945,0,0,0,.2-.6v-.775a.893.893,0,0,0-.2-.59,1.17,1.17,0,0,0-.893-.244h-5.924v-5.121s.67-.027,4.057-.027a1.124,1.124,0,0,0,.891-.258.97.97,0,0,0,.2-.605v-.432a.964.964,0,0,0-.2-.6,1.124,1.124,0,0,0-.891-.258H-18492v-5.5h9.061a4.989,4.989,0,0,1,3.551,1.109,3.948,3.948,0,0,1,1.166,3.006v1.666a4.449,4.449,0,0,1-.375,1.9,2.422,2.422,0,0,1-1.322,1.209,4.006,4.006,0,0,1,2.834,1.25,4.688,4.688,0,0,1,.791,2.922v2.875a4.485,4.485,0,0,1-1.41,3.494,6.016,6.016,0,0,1-4.172,1.279Z" transform="translate(19073.092 -19770.592)" fill="#5bc3cd"/>
  </g>
</svg>
