<svg xmlns="http://www.w3.org/2000/svg" width="16.002" height="16.001" viewBox="0 0 16.002 16.001">
  <path id="Path_3926" data-name="Path 3926" d="M-16647.984,15901a.29.29,0,0,1-.254-.129l-1.342-1.89-2.115.97a.365.365,0,0,1-.133.026.317.317,0,0,1-.16-.043.362.362,0,0,1-.168-.255l-.205-2.316-2.314-.2a.362.362,0,0,1-.26-.163.336.336,0,0,1-.018-.293l.975-2.115-1.893-1.342a.336.336,0,0,1-.131-.255.3.3,0,0,1,.131-.259l1.877-1.321-.975-2.115a.335.335,0,0,1,.016-.293.353.353,0,0,1,.26-.167l2.316-.2.205-2.316a.357.357,0,0,1,.162-.259.319.319,0,0,1,.162-.043.326.326,0,0,1,.131.026l2.119.974,1.342-1.894a.294.294,0,0,1,.25-.125.333.333,0,0,1,.264.125l1.326,1.877,2.115-.974a.35.35,0,0,1,.133-.026.316.316,0,0,1,.158.043.343.343,0,0,1,.164.255l.205,2.315,2.316.205a.346.346,0,0,1,.258.163.336.336,0,0,1,.018.3l-.975,2.111,1.895,1.342a.31.31,0,0,1,.129.259.392.392,0,0,1-.092.255l-1.895,1.342.975,2.115a.336.336,0,0,1-.018.293.362.362,0,0,1-.258.163l-2.32.2-.2,2.316a.346.346,0,0,1-.162.255.317.317,0,0,1-.16.043.37.37,0,0,1-.137-.026l-2.111-.97-1.346,1.89A.317.317,0,0,1-16647.984,15901Zm-.016-6.119a1.329,1.329,0,0,0-.92.309.992.992,0,0,0-.355.773.954.954,0,0,0,.346.766,1.4,1.4,0,0,0,.93.292,1.4,1.4,0,0,0,.924-.292.949.949,0,0,0,.35-.766.977.977,0,0,0-.35-.781A1.376,1.376,0,0,0-16648,15894.88Zm-1.146-5.9h0v5.5h2.291v-5.5Z" transform="translate(16656.002 -15884.998)" fill="#bf3385"/>
</svg>
