<svg xmlns="http://www.w3.org/2000/svg" width="16" height="16" viewBox="0 0 16 16">
  <path id="Path_3923" data-name="Path 3923" d="M35.621,33.353a4.147,4.147,0,0,1-2.985,2.274,5.742,5.742,0,0,1-3.549-.413,17.934,17.934,0,0,1-8.808-8.808,5.742,5.742,0,0,1-.413-3.549,4.147,4.147,0,0,1,2.274-2.985,1.28,1.28,0,0,1,1.589.415c.569.775,1.132,1.647,1.7,2.591a1.277,1.277,0,0,1-.172,1.544c-.354.365-.725.711-1.113,1.045a1.194,1.194,0,0,0-.185,1.592,18.514,18.514,0,0,0,4.48,4.48,1.194,1.194,0,0,0,1.592-.185c.333-.389.68-.759,1.045-1.113a1.277,1.277,0,0,1,1.544-.172c.944.563,1.817,1.126,2.591,1.7A1.28,1.28,0,0,1,35.621,33.353Z" transform="translate(-19.746 -19.747)" fill="#b6bac2"/>
</svg>
