<svg xmlns="http://www.w3.org/2000/svg" width="31" height="31.999" viewBox="0 0 31 31.999">
  <g id="Group_1695" data-name="Group 1695" transform="translate(-1400 -3405)">
    <path id="Path_3945" data-name="Path 3945" d="M17.354,3A11.368,11.368,0,0,0,6,14.354a11.218,11.218,0,0,0,3.226,7.912l-2.56,2.56a.517.517,0,0,0-.108.563.51.51,0,0,0,.475.32H17.354A11.354,11.354,0,0,0,17.354,3ZM15.806,21.58a1.548,1.548,0,1,1,1.548,1.548,1.548,1.548,0,0,1-1.548-1.548Zm3.7-6.147a1.029,1.029,0,0,0-.6.924v1.094a1.548,1.548,0,1,1-3.1,0V16.357a4.123,4.123,0,0,1,2.41-3.737,2.068,2.068,0,0,0,1.2-1.91,2.1,2.1,0,0,0-2.033-2.033,2.074,2.074,0,0,0-1.481.594,2.049,2.049,0,0,0-.614,1.471,1.548,1.548,0,0,1-3.1,0,5.161,5.161,0,1,1,7.313,4.691Z" transform="translate(1394 3402)" fill="#bf3385"/>
    <path id="Path_3946" data-name="Path 3946" d="M44.45,43.533a.517.517,0,0,1,.108.563.509.509,0,0,1-.475.32H33.761A11.363,11.363,0,0,1,22.84,36.158H25.5A12.4,12.4,0,0,0,37.89,23.771c0-.444-.026-.883-.067-1.311a11.365,11.365,0,0,1,7.293,10.6,11.218,11.218,0,0,1-3.226,7.912Z" transform="translate(1385.884 3392.584)" fill="#b6bac2"/>
  </g>
</svg>
