<svg xmlns="http://www.w3.org/2000/svg" width="23.002" height="31.999" viewBox="0 0 23.002 31.999">
  <g id="Group_1693" data-name="Group 1693" transform="translate(-289.998 -713.002)">
    <path id="Path_3944" data-name="Path 3944" d="M-16812.836,13370h-15.33a3.926,3.926,0,0,1-3.836-4v-24a3.923,3.923,0,0,1,3.836-4h9.58v8a1.963,1.963,0,0,0,1.918,2h7.668v18A3.926,3.926,0,0,1-16812.836,13370Zm-14.164-7a1,1,0,0,0-1,1,1,1,0,0,0,1,1h7a1,1,0,0,0,1-1,1,1,0,0,0-1-1Zm0-3a1,1,0,0,0-1,1,1,1,0,0,0,1,1h13a1,1,0,0,0,1-1,1,1,0,0,0-1-1Zm18-14h-7.668v-8l7.666,7.994Z" transform="translate(17122 -12625)" fill="#b6bac2"/>
    <circle id="Ellipse_15" data-name="Ellipse 15" cx="3" cy="3" r="3" transform="translate(294 727)" fill="#bf3385"/>
  </g>
</svg>
