<svg xmlns="http://www.w3.org/2000/svg" width="28.004" height="32" viewBox="0 0 28.004 32">
  <g id="Group_1690" data-name="Group 1690" transform="translate(-289.998 -713.001)">
    <path id="Path_3942" data-name="Path 3942" d="M-17419.834,16132a2.171,2.171,0,0,1-2.168-2.166,11.053,11.053,0,0,1,7.424-10.275.977.977,0,0,1,1.152.316,7.651,7.651,0,0,0,5.43,2.131,8.462,8.462,0,0,0,5.316-2.014c-.088.092.719-.6,1.367-.408,4.064,1.109,7.314,5.379,7.314,10.25a2.163,2.163,0,0,1-2.166,2.166Z" transform="translate(17712 -15386.994)" fill="#bf3385"/>
    <path id="Path_3943" data-name="Path 3943" d="M-17415.408,16110.991s0,0,0,.008v0a8.078,8.078,0,0,1-.588-3,7.927,7.927,0,0,1,1.838-5.084,7.932,7.932,0,0,1,3.395-2.422.077.077,0,0,0,.025-.008c.021-.006.043-.018.07-.025a8.014,8.014,0,0,1,2.676-.465h.012a8,8,0,0,1,8,8c0,.066,0,.137,0,.2v.107a.591.591,0,0,1,0,.084c0,.057-.006.107-.006.162a.076.076,0,0,1,0,.029,8,8,0,0,1-7.979,7.41A8,8,0,0,1-17415.408,16110.991Z" transform="translate(17712 -15386.994)" fill="#b6bac2"/>
  </g>
</svg>
