<svg xmlns="http://www.w3.org/2000/svg" width="13" height="12" viewBox="0 0 13 12">
  <path id="Path_3927" data-name="Path 3927" d="M13.8-2.51a3.186,3.186,0,0,1-.819,2.288,2.9,2.9,0,0,1-2.21.863A2.73,2.73,0,0,1,8.7-.165,2.936,2.936,0,0,1,7.929-2.29a3.159,3.159,0,0,1,.827-2.3,2.931,2.931,0,0,1,2.2-.851,2.781,2.781,0,0,1,2.079.773A2.948,2.948,0,0,1,13.8-2.51ZM11.714-2.4a1.652,1.652,0,0,0-.215-.908.668.668,0,0,0-.588-.33.713.713,0,0,0-.636.346,1.723,1.723,0,0,0-.223.94,1.626,1.626,0,0,0,.2.879.674.674,0,0,0,.608.318.715.715,0,0,0,.632-.326A1.642,1.642,0,0,0,11.714-2.4ZM4.9.478H2.4L9.726-11.2h2.5Zm1.749-8.89a3.168,3.168,0,0,1-.823,2.3,2.908,2.908,0,0,1-2.191.851,2.73,2.73,0,0,1-2.063-.806A2.936,2.936,0,0,1,.8-8.192a3.24,3.24,0,0,1,.807-2.3,2.867,2.867,0,0,1,2.206-.867,2.749,2.749,0,0,1,2.079.79A2.983,2.983,0,0,1,6.649-8.412Zm-2.091.09a1.692,1.692,0,0,0-.2-.891.641.641,0,0,0-.576-.33.713.713,0,0,0-.636.346,1.723,1.723,0,0,0-.223.94,1.626,1.626,0,0,0,.2.879.674.674,0,0,0,.608.318.691.691,0,0,0,.612-.326A1.7,1.7,0,0,0,4.558-8.323Z" transform="translate(-0.797 11.359)" fill="#198fe9"/>
</svg>
