<svg xmlns="http://www.w3.org/2000/svg" width="16" height="16" viewBox="0 0 16 16">
  <path id="Path_3952" data-name="Path 3952" d="M24.265,17.208,23.7,14.831h0a2.311,2.311,0,0,0-2.261-1.777H11.207A2.311,2.311,0,0,0,8.947,14.83l-.561,2.377h0a2.3,2.3,0,0,0,.442,1.962,2.342,2.342,0,0,0,1.13.761v5.923a.774.774,0,0,0,1.547,0V20.042h3.331v5.8a.772.772,0,0,0,.774.77H21.92a.772.772,0,0,0,.774-.77V19.923h0a2.353,2.353,0,0,0,1.13-.761,2.3,2.3,0,0,0,.442-1.954Zm-7.882,7.869V20.042h4.762v5.035ZM10.434,11.4h0a.772.772,0,0,1,.773-.77H21.444a.77.77,0,1,1,0,1.54H11.207a.771.771,0,0,1-.773-.769Z" transform="translate(-8.325 -10.625)" fill="#bf3385"/>
</svg>
