<svg xmlns="http://www.w3.org/2000/svg" width="16" height="16" viewBox="0 0 16 16">
  <path id="Path_3951" data-name="Path 3951" d="M-16467.334,15990.221a1.779,1.779,0,0,1,1.775-1.779,1.78,1.78,0,0,1,1.779,1.779,1.778,1.778,0,0,1-1.779,1.779A1.778,1.778,0,0,1-16467.334,15990.221Zm-7.113,0a1.782,1.782,0,0,1,1.779-1.779,1.782,1.782,0,0,1,1.779,1.779,1.781,1.781,0,0,1-1.779,1.779A1.781,1.781,0,0,1-16474.447,15990.221Zm10.861-2.855s-10.6-.1-10.617-.088a2.165,2.165,0,0,1-1.162-.758,2.082,2.082,0,0,1-.453-1.285v-7.1a.7.7,0,0,0-.211-.5.752.752,0,0,0-.516-.209h-.729a.742.742,0,0,1-.514-.207.7.7,0,0,1-.213-.5.693.693,0,0,1,.213-.5.729.729,0,0,1,.514-.211h.729a2.2,2.2,0,0,1,1.539.625,2.089,2.089,0,0,1,.645,1.506v7.1a.7.7,0,0,0,.209.5.742.742,0,0,0,.514.207h10.91a.752.752,0,0,1,.516.209.7.7,0,0,1,.213.5.706.706,0,0,1-.213.5.761.761,0,0,1-.516.209Zm-7.3-2.477a1.776,1.776,0,0,1-1.779-1.779v-4.445a1.773,1.773,0,0,1,1.779-1.773h4.445a1.772,1.772,0,0,1,1.773,1.773v4.445a1.775,1.775,0,0,1-1.773,1.779Z" transform="translate(16478 -15976)" fill="#1eaf10"/>
</svg>
