<svg xmlns="http://www.w3.org/2000/svg" width="18" height="20" viewBox="0 0 18 20">
  <path id="Path_4048" data-name="Path 4048" d="M-17420.609,16120a1.38,1.38,0,0,1-1.395-1.357,6.92,6.92,0,0,1,4.771-6.422.637.637,0,0,1,.738.2,4.984,4.984,0,0,0,3.49,1.334,5.53,5.53,0,0,0,3.418-1.26c-.055.059.463-.377.879-.254a6.664,6.664,0,0,1,4.7,6.4,1.374,1.374,0,0,1-1.391,1.357Zm2.84-13.131a.01.01,0,0,0,0,.006v0a4.868,4.868,0,0,1-.375-1.875,4.9,4.9,0,0,1,1.178-3.182,5.169,5.169,0,0,1,2.188-1.512.046.046,0,0,0,.016,0,.186.186,0,0,1,.043-.014,5.154,5.154,0,0,1,1.719-.289h.008a5.073,5.073,0,0,1,5.143,5c0,.043,0,.084,0,.125,0,.021,0,.043,0,.066a.442.442,0,0,1,0,.053c0,.035,0,.068,0,.1a.054.054,0,0,1,0,.02A5.088,5.088,0,0,1-17413,16110,5.146,5.146,0,0,1-17417.77,16106.874Z" transform="translate(17422.004 -16100.005)" fill="#b6bac2"/>
</svg>
